<svg width="16.500000" height="19.000000" viewBox="0 0 16.5 19" fill="none" xmlns="http://www.w3.org/2000/svg" xmlns:xlink="http://www.w3.org/1999/xlink">
	<desc>
			Created with Pixso.
	</desc>
	<defs/>
	<path id="Vector" d="M12.76 13.36C13.94 13.99 17.03 15.28 15.15 16.89C14.23 17.68 13.21 18.25 11.92 18.25L4.57 18.25C3.28 18.25 2.26 17.68 1.34 16.89C-0.54 15.28 2.55 13.99 3.73 13.36C6.49 11.87 10 11.87 12.76 13.36ZM8.25 8.75C6.04 8.75 4.25 6.95 4.25 4.75C4.25 2.54 6.04 0.75 8.25 0.75C10.45 0.75 12.25 2.54 12.25 4.75C12.25 6.95 10.45 8.75 8.25 8.75Z" stroke="#B3B3B3" stroke-opacity="1.000000" stroke-width="1.500000"/>
</svg>
