<svg width="21.500000" height="19.500000" viewBox="0 0 21.5 19.5" fill="none" xmlns="http://www.w3.org/2000/svg" xmlns:xlink="http://www.w3.org/1999/xlink">
	<desc>
			Created with Pixso.
	</desc>
	<defs/>
	<path id="Vector" d="M13.16 13.04C14.38 13.78 17.58 15.28 15.63 17.17C14.68 18.09 13.62 18.75 12.29 18.75L4.7 18.75C3.37 18.75 2.31 18.09 1.36 17.17C-0.59 15.28 2.61 13.78 3.83 13.04C6.68 11.31 10.31 11.31 13.16 13.04Z" stroke="#B3B3B3" stroke-opacity="1.000000" stroke-width="1.500000" stroke-linejoin="round"/>
	<path id="Ellipse 1382" d="M8.25 8.75C6.04 8.75 4.25 6.95 4.25 4.75C4.25 2.54 6.04 0.75 8.25 0.75C10.45 0.75 12.25 2.54 12.25 4.75C12.25 6.95 10.45 8.75 8.25 8.75Z" stroke="#B3B3B3" stroke-opacity="1.000000" stroke-width="1.500000"/>
	<path id="Vector 6598" d="M15.75 2.75L20.75 2.75" stroke="#B3B3B3" stroke-opacity="1.000000" stroke-width="1.500000" stroke-linejoin="round" stroke-linecap="round"/>
	<path id="Vector 6599" d="M15.75 5.75L20.75 5.75" stroke="#B3B3B3" stroke-opacity="1.000000" stroke-width="1.500000" stroke-linejoin="round" stroke-linecap="round"/>
	<path id="Vector 6600" d="M18.75 8.75L20.75 8.75" stroke="#B3B3B3" stroke-opacity="1.000000" stroke-width="1.500000" stroke-linejoin="round" stroke-linecap="round"/>
</svg>
