<svg width="24.000000" height="24.000000" viewBox="0 0 24 24" fill="none" xmlns="http://www.w3.org/2000/svg" xmlns:xlink="http://www.w3.org/1999/xlink">
	<desc>
			Created with Pixso.
	</desc>
	<defs>
		<clipPath id="clip126_7679">
			<rect id="truck-delivery" rx="0.000000" width="23.000000" height="23.000000" transform="translate(0.500000 0.500000)" fill="white" fill-opacity="0"/>
		</clipPath>
	</defs>
	<g clip-path="url(#clip126_7679)">
		<circle id="Ellipse 1647" r="2.000000" transform="matrix(1 2.44929e-16 -2.44929e-16 1 17 18)" stroke="#B3B3B3" stroke-opacity="1.000000" stroke-width="1.500000"/>
		<circle id="Ellipse 1648" r="2.000000" transform="matrix(1 2.44929e-16 -2.44929e-16 1 7 18)" stroke="#B3B3B3" stroke-opacity="1.000000" stroke-width="1.500000"/>
		<path id="Vector 5060" d="M2 4L10.3 4C11.41 4 11.97 4 12.42 4.14C13.33 4.44 14.05 5.15 14.35 6.07C14.5 6.52 14.5 7.08 14.5 8.19C14.5 8.94 14.5 9.31 14.59 9.61C14.79 10.22 15.27 10.7 15.88 10.9C16.18 11 16.55 11 17.3 11L22 11L22 13C22 15.35 22 16.53 21.26 17.26C20.78 17.75 20.09 17.91 19 17.97M5 17.97C3.9 17.91 3.21 17.75 2.73 17.26C2.24 16.78 2.08 16.09 2.02 15M15 18L9 18" stroke="#B3B3B3" stroke-opacity="1.000000" stroke-width="1.500000" stroke-linejoin="round" stroke-linecap="round"/>
		<path id="Vector 5026" d="M2 8L8 8" stroke="#B3B3B3" stroke-opacity="1.000000" stroke-width="1.500000" stroke-linejoin="round" stroke-linecap="round"/>
		<path id="Vector 5027" d="M2 11L6 11" stroke="#B3B3B3" stroke-opacity="1.000000" stroke-width="1.500000" stroke-linejoin="round" stroke-linecap="round"/>
		<path id="Vector 5061" d="M14.5 6L16.32 6C17.77 6 18.5 6 19.09 6.35C19.68 6.7 20.03 7.34 20.72 8.62L22 11" stroke="#B3B3B3" stroke-opacity="1.000000" stroke-width="1.500000" stroke-linejoin="round" stroke-linecap="round"/>
	</g>
</svg>
