<svg width="24.000000" height="24.000000" viewBox="0 0 24 24" fill="none" xmlns="http://www.w3.org/2000/svg" xmlns:xlink="http://www.w3.org/1999/xlink">
	<desc>
			Created with Pixso.
	</desc>
	<defs>
		<clipPath id="clip126_7689">
			<rect id="border-right-01" rx="0.000000" width="23.000000" height="23.000000" transform="translate(0.500000 0.500000)" fill="white" fill-opacity="0"/>
		</clipPath>
	</defs>
	<g clip-path="url(#clip126_7689)">
		<path id="Vector 241" d="M17.5 2.5C18.59 2.69 19.39 3.04 20.03 3.67C21.5 5.09 21.5 7.39 21.5 12C21.5 16.6 21.5 18.9 20.03 20.32C19.39 20.95 18.59 21.3 17.5 21.5" stroke="#B3B3B3" stroke-opacity="1.000000" stroke-width="1.500000" stroke-linejoin="round" stroke-linecap="round"/>
		<path id="Vector 242" d="M6.31 2.75C5.26 2.94 4.5 3.28 3.89 3.89C3.28 4.49 2.94 5.26 2.75 6.3M9.98 2.5C10.57 2.5 11.33 2.5 12.02 2.5C12.71 2.5 13.41 2.5 14 2.5M2.5 13.9C2.5 13.31 2.5 12.68 2.5 12C2.5 11.31 2.5 10.68 2.5 10.1M2.75 17.7C2.94 18.73 3.28 19.5 3.89 20.1C4.5 20.71 5.26 21.05 6.31 21.24M9.98 21.49C10.57 21.5 11.33 21.5 12.02 21.5C12.71 21.5 13.41 21.5 14 21.49" stroke="#B3B3B3" stroke-opacity="1.000000" stroke-width="1.500000" stroke-linejoin="round" stroke-linecap="round"/>
		<path id="Vector" d="M12 2.5L12 4M12 20L12 21.5M15 12L9 12M4.46 12L3 12M12 9L12 15" stroke="#B3B3B3" stroke-opacity="1.000000" stroke-width="1.500000" stroke-linejoin="round" stroke-linecap="round"/>
	</g>
</svg>
