<svg width="21.000000" height="21.500000" viewBox="0 0 21 21.5" fill="none" xmlns="http://www.w3.org/2000/svg" xmlns:xlink="http://www.w3.org/1999/xlink">
	<desc>
			Created with Pixso.
	</desc>
	<defs/>
	<path id="Vector" d="M19.75 5.88C20.1 6.49 20.27 6.79 20.24 7.11C20.21 7.44 19.97 7.7 19.5 8.22L18.47 9.37C18.22 9.69 18.04 10.25 18.04 10.74C18.04 11.25 18.22 11.8 18.47 12.12L19.5 13.27C19.97 13.79 20.21 14.05 20.24 14.38C20.27 14.7 20.1 15 19.75 15.61L19.26 16.47C18.88 17.12 18.7 17.44 18.38 17.57C18.06 17.7 17.7 17.6 16.98 17.39L15.76 17.05C15.31 16.94 14.82 17 14.41 17.22L14.07 17.41C13.71 17.64 13.43 17.98 13.28 18.38L12.95 19.38C12.73 20.04 12.62 20.37 12.35 20.56C12.09 20.75 11.75 20.75 11.05 20.75L9.94 20.75C9.24 20.75 8.9 20.75 8.64 20.56C8.37 20.37 8.26 20.04 8.04 19.38L7.71 18.38C7.56 17.98 7.28 17.64 6.92 17.41L6.58 17.22C6.17 17 5.68 16.94 5.23 17.05L4.01 17.39C3.29 17.6 2.93 17.7 2.61 17.57C2.29 17.44 2.11 17.12 1.73 16.47L1.24 15.61C0.89 15 0.72 14.7 0.75 14.38C0.78 14.05 1.02 13.79 1.49 13.27L2.52 12.12C2.77 11.8 2.95 11.25 2.95 10.74C2.95 10.25 2.77 9.69 2.52 9.37L1.49 8.22C1.02 7.7 0.78 7.44 0.75 7.11C0.72 6.79 0.89 6.49 1.24 5.88L1.73 5.02C2.11 4.37 2.29 4.05 2.61 3.92C2.93 3.79 3.29 3.89 4.01 4.1L5.23 4.44C5.68 4.55 6.17 4.49 6.58 4.27L6.92 4.08C7.28 3.85 7.56 3.51 7.71 3.11L8.04 2.11C8.26 1.45 8.37 1.12 8.64 0.93C8.9 0.75 9.24 0.75 9.94 0.75L11.05 0.75C11.75 0.75 12.09 0.75 12.35 0.93C12.62 1.12 12.73 1.45 12.95 2.11L13.28 3.11C13.43 3.51 13.71 3.85 14.07 4.08L14.41 4.27C14.82 4.49 15.31 4.55 15.76 4.44L16.98 4.1C17.7 3.89 18.06 3.79 18.38 3.92C18.7 4.05 18.88 4.37 19.26 5.02L19.75 5.88Z" stroke="#B3B3B3" stroke-opacity="1.000000" stroke-width="1.500000"/>
	<path id="Ellipse 1200" d="M10.45 14.24C8.52 14.24 6.95 12.67 6.95 10.74C6.95 8.8 8.52 7.24 10.45 7.24C12.39 7.24 13.95 8.8 13.95 10.74C13.95 12.67 12.39 14.24 10.45 14.24Z" stroke="#B3B3B3" stroke-opacity="1.000000" stroke-width="1.500000"/>
</svg>
