<svg width="20.500000" height="20.500000" viewBox="0 0 20.5 20.5" fill="none" xmlns="http://www.w3.org/2000/svg" xmlns:xlink="http://www.w3.org/1999/xlink">
	<desc>
			Created with Pixso.
	</desc>
	<defs/>
	<path id="Vector" d="M2.14 18.35C0.75 16.96 0.75 14.72 0.75 10.25C0.75 5.77 0.75 3.53 2.14 2.14C3.53 0.75 5.77 0.75 10.25 0.75C14.72 0.75 16.96 0.75 18.35 2.14C19.75 3.53 19.75 5.77 19.75 10.25C19.75 14.72 19.75 16.96 18.35 18.35C16.96 19.75 14.72 19.75 10.25 19.75C5.77 19.75 3.53 19.75 2.14 18.35Z" stroke="#1A1A1A" stroke-opacity="1.000000" stroke-width="1.500000" stroke-linejoin="round"/>
	<path id="Ellipse 1200" d="M6.75 15.25C5.92 15.25 5.25 14.57 5.25 13.75C5.25 12.92 5.92 12.25 6.75 12.25C7.57 12.25 8.25 12.92 8.25 13.75C8.25 14.57 7.57 15.25 6.75 15.25Z" stroke="#1A1A1A" stroke-opacity="1.000000" stroke-width="1.500000"/>
	<path id="Ellipse 1201" d="M13.75 5.25C12.92 5.25 12.25 5.92 12.25 6.75C12.25 7.57 12.92 8.25 13.75 8.25C14.57 8.25 15.25 7.57 15.25 6.75C15.25 5.92 14.57 5.25 13.75 5.25Z" stroke="#1A1A1A" stroke-opacity="1.000000" stroke-width="1.500000"/>
	<path id="Vector 6833" d="M6.75 12.25L6.75 5.25" stroke="#1A1A1A" stroke-opacity="1.000000" stroke-width="1.500000" stroke-linecap="round"/>
	<path id="Vector 6834" d="M13.75 8.25L13.75 15.25" stroke="#1A1A1A" stroke-opacity="1.000000" stroke-width="1.500000" stroke-linecap="round"/>
</svg>
