<svg width="33.333984" height="33.333252" viewBox="0 0 33.334 33.3333" fill="none" xmlns="http://www.w3.org/2000/svg" xmlns:xlink="http://www.w3.org/1999/xlink">
	<desc>
			Created with Pixso.
	</desc>
	<defs/>
	<path id="Vector" d="M16.66 0C9.51 0 3.43 4.51 1.07 10.83L32.26 10.83C29.89 4.51 23.81 0 16.66 0Z" fill="#E0E1E2" fill-opacity="1.000000" fill-rule="nonzero"/>
	<path id="Vector" d="M33.33 16.66C33.33 14.61 32.94 12.65 32.26 10.83L1.07 10.83C0.39 12.65 0 14.61 0 16.66C0 18.72 0.39 20.68 1.07 22.5L32.26 22.5C32.94 20.68 33.33 18.72 33.33 16.66Z" fill="#3F51B5" fill-opacity="1.000000" fill-rule="nonzero"/>
	<path id="Vector" d="M32.26 22.5L1.07 22.5C3.43 28.82 9.51 33.33 16.66 33.33C23.81 33.33 29.89 28.82 32.26 22.5Z" fill="#FF3D00" fill-opacity="1.000000" fill-rule="nonzero"/>
</svg>
